<?xml version="1.0" encoding="utf-8"?>
<!-- Generator: Adobe Illustrator 26.2.0, SVG Export Plug-In . SVG Version: 6.00 Build 0)  -->
<svg version="1.1" id="레이어_1" xmlns="http://www.w3.org/2000/svg" xmlns:xlink="http://www.w3.org/1999/xlink" x="0px"
	 y="0px" viewBox="0 0 805.1 505.8" style="enable-background:new 0 0 805.1 505.8;" xml:space="preserve">
<style type="text/css">
	.st0{fill:#BFC8D9;}
	.st1{fill:#ECF1F3;}
	.st2{opacity:0.23;clip-path:url(#SVGID_00000125598205264995207690000015292037801615325582_);}
	.st3{fill:#B0B7C6;}
	.st4{opacity:0.33;}
	.st5{fill:#E60012;}
	.st6{fill:#8C9091;}
	.st7{fill:none;stroke:#E60012;stroke-width:0.5;stroke-miterlimit:10;}
	.st8{fill:none;stroke:#E60012;stroke-width:0.5;stroke-miterlimit:10;stroke-dasharray:1.0015,1.0015;}
	.st9{fill:none;stroke:#E60012;stroke-width:0.5;stroke-miterlimit:10;stroke-dasharray:0.9927,0.9927;}
	.st10{opacity:0.11;fill:#E60012;}
</style>
<g>
	<g>
		<defs>
			<path id="SVGID_1_" d="M774,505.8H30.2C13.5,505.8,0,492.2,0,475.6V31C0,14.3,13.5,0.8,30.2,0.8H774c16.7,0,30.2,13.5,30.2,30.2
				v444.6C804.2,492.2,790.7,505.8,774,505.8z"/>
		</defs>
		<clipPath id="SVGID_00000047755539936171888120000004511726895678712704_">
			<use xlink:href="#SVGID_1_"  style="overflow:visible;"/>
		</clipPath>
	</g>
	<path class="st0" d="M774.9,505H31.1c-16.7,0-30.2-13.5-30.2-30.2V30.2C0.9,13.5,14.4,0,31.1,0h743.8c16.7,0,30.2,13.5,30.2,30.2
		v444.6C805.1,491.5,791.6,505,774.9,505z"/>
	<path class="st1" d="M5.5,475.1V29.8c0-13.9,11.3-25.2,25.2-25.2h744.5c13.9,0,25.2,11.3,25.2,25.2v445.3
		c0,13.9-11.3,25.2-25.2,25.2H30.7C16.8,500.3,5.5,489,5.5,475.1z"/>
	<g>
		<defs>
			<path id="SVGID_00000160879103939460497150000006943860177130858422_" d="M774,505.8H30.2C13.5,505.8,0,492.2,0,475.6V31
				C0,14.3,13.5,0.8,30.2,0.8H774c16.7,0,30.2,13.5,30.2,30.2v444.6C804.2,492.2,790.7,505.8,774,505.8z"/>
		</defs>
		<clipPath id="SVGID_00000052068465421020415950000012006779149757364372_">
			<use xlink:href="#SVGID_00000160879103939460497150000006943860177130858422_"  style="overflow:visible;"/>
		</clipPath>
		<g style="opacity:0.23;clip-path:url(#SVGID_00000052068465421020415950000012006779149757364372_);">
			<g>
				<g>
					<path class="st3" d="M358.4,219.5c-34,0-61.8,27.7-61.8,61.8c0,34,27.8,61.8,61.8,61.8c34.1,0,61.9-27.8,61.9-61.8
						C420.2,247.2,392.5,219.5,358.4,219.5z M358.4,315.1c-18.7,0-33.9-15.1-33.9-33.8c0-18.7,15.2-33.9,33.9-33.9
						c18.7,0,33.9,15.3,33.9,33.9C392.3,300,377.1,315.1,358.4,315.1z"/>
				</g>
				<path class="st3" d="M296.6,281.3c0,34,27.7,61.8,61.8,61.8c34,0,61.8-27.8,61.8-61.8c0-34.1-27.8-61.9-61.8-61.9
					C324.3,219.4,296.6,247.2,296.6,281.3z M392.2,281.3c0,18.7-15.1,33.9-33.8,33.9c-18.7,0-33.9-15.2-33.9-33.9
					c0-18.7,15.3-33.9,33.9-33.9C377.1,247.4,392.2,262.6,392.2,281.3z"/>
			</g>
			<g>
				<path class="st3" d="M518.6,281.3c0,34,27.7,61.8,61.8,61.8c34,0,61.8-27.8,61.8-61.8c0-34.1-27.8-61.9-61.8-61.9
					C546.3,219.4,518.6,247.2,518.6,281.3z M614.2,281.3c0,18.7-15.1,33.9-33.8,33.9c-18.7,0-33.9-15.2-33.9-33.9
					c0-18.7,15.3-33.9,33.9-33.9C599.1,247.4,614.2,262.6,614.2,281.3z"/>
			</g>
			<g>
				<path class="st3" d="M740.6,281.3c0,34,27.7,61.8,61.8,61.8c34,0,61.8-27.8,61.8-61.8c0-34.1-27.8-61.9-61.8-61.9
					C768.3,219.4,740.6,247.2,740.6,281.3z M836.2,281.3c0,18.7-15.1,33.9-33.8,33.9c-18.7,0-33.9-15.2-33.9-33.9
					c0-18.7,15.3-33.9,33.9-33.9C821.1,247.4,836.2,262.6,836.2,281.3z"/>
			</g>
			<g>
				<g class="st4">
					<path class="st3" d="M358.4,442c-34,0-61.8,27.7-61.8,61.8c0,34,27.8,61.8,61.8,61.8c34.1,0,61.9-27.8,61.9-61.8
						C420.2,469.7,392.5,442,358.4,442z M358.4,537.7c-18.7,0-33.9-15.1-33.9-33.8c0-18.7,15.2-33.9,33.9-33.9
						c18.7,0,33.9,15.3,33.9,33.9C392.3,522.6,377.1,537.7,358.4,537.7z"/>
				</g>
				<path class="st3" d="M296.6,503.9c0,34,27.7,61.8,61.8,61.8c34,0,61.8-27.8,61.8-61.8c0-34.1-27.8-61.9-61.8-61.9
					C324.3,442,296.6,469.8,296.6,503.9z M392.2,503.9c0,18.7-15.1,33.9-33.8,33.9c-18.7,0-33.9-15.2-33.9-33.9
					c0-18.7,15.3-33.9,33.9-33.9C377.1,469.9,392.2,485.1,392.2,503.9z"/>
			</g>
			<g>
				<g>
					<path class="st3" d="M580.4,442c-34,0-61.8,27.7-61.8,61.8c0,34,27.8,61.8,61.8,61.8c34.1,0,61.9-27.8,61.9-61.8
						C642.2,469.7,614.5,442,580.4,442z M580.4,537.7c-18.7,0-33.9-15.1-33.9-33.8c0-18.7,15.2-33.9,33.9-33.9
						c18.7,0,33.9,15.3,33.9,33.9C614.3,522.6,599.1,537.7,580.4,537.7z"/>
				</g>
				<path class="st3" d="M518.6,503.9c0,34,27.7,61.8,61.8,61.8c34,0,61.8-27.8,61.8-61.8c0-34.1-27.8-61.9-61.8-61.9
					C546.3,442,518.6,469.8,518.6,503.9z M614.2,503.9c0,18.7-15.1,33.9-33.8,33.9c-18.7,0-33.9-15.2-33.9-33.9
					c0-18.7,15.3-33.9,33.9-33.9C599.1,469.9,614.2,485.1,614.2,503.9z"/>
			</g>
			<g>
				<path class="st3" d="M740.6,503.9c0,34,27.7,61.8,61.8,61.8c34,0,61.8-27.8,61.8-61.8c0-34.1-27.8-61.9-61.8-61.9
					C768.3,442,740.6,469.8,740.6,503.9z M836.2,503.9c0,18.7-15.1,33.9-33.8,33.9c-18.7,0-33.9-15.2-33.9-33.9
					c0-18.7,15.3-33.9,33.9-33.9C821.1,469.9,836.2,485.1,836.2,503.9z"/>
			</g>
		</g>
	</g>
	<g>
		<path class="st5" d="M701.6,104.9c-2.8,0-5,2.3-5,5c0,2.8,2.3,5,5,5c2.8,0,5-2.2,5-5C706.7,107.1,704.4,104.9,701.6,104.9z"/>
		<path class="st5" d="M668.6,71.8c-2.8,0-5,2.3-5,5c0,2.8,2.3,5,5,5c2.8,0,5-2.2,5-5C673.6,74.1,671.4,71.8,668.6,71.8z"/>
		<path class="st5" d="M689.7,137.9c-2.8,0-5,2.3-5,5c0,2.8,2.3,5,5,5c2.8,0,5-2.2,5-5C694.7,140.1,692.5,137.9,689.7,137.9z"/>
		<path class="st5" d="M701.6,81.9c2.8,0,5-2.2,5-5c0-2.8-2.3-5-5-5c-2.8,0-5,2.3-5,5C696.6,79.6,698.9,81.9,701.6,81.9z"/>
		<path class="st5" d="M668.6,137.9c-2.8,0-5,2.3-5,5c0,2.8,2.3,5,5,5c2.8,0,5-2.2,5-5C673.6,140.1,671.4,137.9,668.6,137.9z"/>
		<path class="st5" d="M668.6,104.9c-2.8,0-5,2.3-5,5c0,2.8,2.3,5,5,5c2.8,0,5-2.2,5-5C673.6,107.1,671.4,104.9,668.6,104.9z"/>
		<path class="st5" d="M734.7,104.9c-2.8,0-5,2.3-5,5c0,2.8,2.3,5,5,5c2.8,0,5-2.2,5-5C739.7,107.1,737.4,104.9,734.7,104.9z"/>
		<path class="st5" d="M734.7,137.9c-2.8,0-5,2.3-5,5c0,2.8,2.3,5,5,5c2.8,0,5-2.2,5-5C739.7,140.1,737.4,137.9,734.7,137.9z"/>
		<path class="st5" d="M734.7,71.8c-2.8,0-5,2.3-5,5c0,2.8,2.3,5,5,5c2.8,0,5-2.2,5-5C739.7,74.1,737.4,71.8,734.7,71.8z"/>
		<g>
			<path class="st5" d="M702.1,104.9c-2.8,0-5,2.3-5,5c0,2.8,2.3,5,5,5c2.8,0,5-2.2,5-5C707.1,107.1,704.8,104.9,702.1,104.9z"/>
			<path class="st5" d="M669,71.8c-2.8,0-5,2.3-5,5c0,2.8,2.3,5,5,5c2.8,0,5-2.2,5-5C674.1,74.1,671.8,71.8,669,71.8z"/>
			<path class="st5" d="M690.1,137.9c-2.8,0-5,2.3-5,5c0,2.8,2.3,5,5,5c2.8,0,5-2.2,5-5C695.2,140.1,692.9,137.9,690.1,137.9z"/>
			<path class="st5" d="M702.1,81.9c2.8,0,5-2.2,5-5c0-2.8-2.3-5-5-5c-2.8,0-5,2.3-5,5C697,79.6,699.3,81.9,702.1,81.9z"/>
			<path class="st5" d="M669,137.9c-2.8,0-5,2.3-5,5c0,2.8,2.3,5,5,5c2.8,0,5-2.2,5-5C674.1,140.1,671.8,137.9,669,137.9z"/>
			<path class="st5" d="M669,104.9c-2.8,0-5,2.3-5,5c0,2.8,2.3,5,5,5c2.8,0,5-2.2,5-5C674.1,107.1,671.8,104.9,669,104.9z"/>
			<path class="st5" d="M735.1,104.9c-2.8,0-5,2.3-5,5c0,2.8,2.3,5,5,5c2.8,0,5-2.2,5-5C740.1,107.1,737.9,104.9,735.1,104.9z"/>
			<path class="st5" d="M735.1,137.9c-2.8,0-5,2.3-5,5c0,2.8,2.3,5,5,5c2.8,0,5-2.2,5-5C740.1,140.1,737.9,137.9,735.1,137.9z"/>
			<path class="st5" d="M644.1,53.3v115.1h115.1V53.3H644.1z M702.1,67.7c5.1,0,9.2,4.1,9.2,9.2c0,5.1-4.1,9.2-9.2,9.2
				c-5.1,0-9.2-4.1-9.2-9.2C692.9,71.8,697,67.7,702.1,67.7z M678.2,152.1h-4.1v-1.5c-1.4,1-3.2,1.5-5.1,1.5c-5.1,0-9.2-4.1-9.2-9.2
				c0-5.1,4.1-9.2,9.2-9.2c1.9,0,3.6,0.6,5.1,1.5v-7.8h4.1V152.1z M669,119.1c-5.1,0-9.2-4.1-9.2-9.2c0-5.1,4.1-9.2,9.2-9.2
				c5.1,0,9.2,4.1,9.2,9.2C678.2,114.9,674.1,119.1,669,119.1z M669,86c-5.1,0-9.2-4.1-9.2-9.2c0-5.1,4.1-9.2,9.2-9.2
				c5.1,0,9.2,4.1,9.2,9.2C678.2,81.9,674.1,86,669,86z M699.3,152.1h-4.1v-1.5c-1.5,1-3.2,1.5-5.1,1.5c-5.1,0-9.2-4.1-9.2-9.2
				c0-5.1,4.1-9.2,9.2-9.2c1.9,0,3.6,0.6,5.1,1.5v-1.5h4.1V152.1z M707.1,152.1H703v-18.3h4.1V152.1z M702.1,119.1
				c-5.1,0-9.2-4.1-9.2-9.2c0-5.1,4.1-9.2,9.2-9.2c5.1,0,9.2,4.1,9.2,9.2C711.2,114.9,707.1,119.1,702.1,119.1z M717.2,152.1
				c-7.9,0-7.2-6.4-7.2-6.4h4.1c0,0-0.4,2.9,3.2,2.9c2.3,0,2.6-1.8,2.6-1.8c0-1.7-1.5-2.2-4.4-2.9c-5.5-1.3-5.2-4.6-5.2-4.9
				c0-3.7,3.6-5.3,6.7-5.3c6.5,0,6.8,5.7,6.8,5.7h-4c0,0-0.1-2.1-2.9-2.2c-1,0-2.4,0.4-2.4,1.5c0,1.4,2.6,2,3.7,2.2
				c5.6,1.4,5.9,4.4,5.9,5.3C723.9,152.3,717.2,152.1,717.2,152.1z M735.1,152.1c-5.1,0-9.2-4.1-9.2-9.2c0-5.1,4.1-9.2,9.2-9.2
				c5.1,0,9.2,4.1,9.2,9.2C744.3,148,740.1,152.1,735.1,152.1z M735.1,119.1c-5.1,0-9.2-4.1-9.2-9.2c0-5.1,4.1-9.2,9.2-9.2
				c5.1,0,9.2,4.1,9.2,9.2C744.3,114.9,740.1,119.1,735.1,119.1z M735.1,86c-5.1,0-9.2-4.1-9.2-9.2c0-5.1,4.1-9.2,9.2-9.2
				c5.1,0,9.2,4.1,9.2,9.2C744.3,81.9,740.1,86,735.1,86z"/>
			<path class="st5" d="M735.1,71.8c-2.8,0-5,2.3-5,5c0,2.8,2.3,5,5,5c2.8,0,5-2.2,5-5C740.1,74.1,737.9,71.8,735.1,71.8z"/>
		</g>
	</g>
	<g>
		<g>
			<g>
				<path class="st6" d="M96.4,416.4v-8.3h16.7v42.9h-9.8v-34.7H96.4z"/>
				<path class="st6" d="M155.7,429.6c0,10.7-5,22.3-16.7,22.3c-11.8,0-16.7-11.6-16.7-22.3c0-10.8,5-22.3,16.7-22.3
					C150.6,407.3,155.7,418.8,155.7,429.6z M132,429.5c0,4.2,1.4,13.6,7,13.6c5.7,0,7-9.3,7-13.6c0-4.2-1.3-13.4-7-13.4
					C133.3,416.1,132,425.3,132,429.5z"/>
				<path class="st6" d="M162.7,455.6h-6.3l3.7-13.1h8L162.7,455.6z"/>
				<path class="st6" d="M204.5,429.6c0,10.7-5,22.3-16.7,22.3c-11.8,0-16.7-11.6-16.7-22.3c0-10.8,5-22.3,16.7-22.3
					C199.5,407.3,204.5,418.8,204.5,429.6z M180.8,429.5c0,4.2,1.4,13.6,7,13.6c5.7,0,7-9.3,7-13.6c0-4.2-1.3-13.4-7-13.4
					C182.2,416.1,180.8,425.3,180.8,429.5z"/>
				<path class="st6" d="M241.2,429.6c0,10.7-5,22.3-16.7,22.3c-11.8,0-16.7-11.6-16.7-22.3c0-10.8,5-22.3,16.7-22.3
					C236.2,407.3,241.2,418.8,241.2,429.6z M217.5,429.5c0,4.2,1.4,13.6,7,13.6c5.7,0,7-9.3,7-13.6c0-4.2-1.3-13.4-7-13.4
					C218.9,416.1,217.5,425.3,217.5,429.5z"/>
				<path class="st6" d="M277.9,429.6c0,10.7-5,22.3-16.7,22.3c-11.8,0-16.7-11.6-16.7-22.3c0-10.8,5-22.3,16.7-22.3
					C272.9,407.3,277.9,418.8,277.9,429.6z M254.2,429.5c0,4.2,1.4,13.6,7,13.6c5.7,0,7-9.3,7-13.6c0-4.2-1.3-13.4-7-13.4
					C255.6,416.1,254.2,425.3,254.2,429.5z"/>
			</g>
			<g>
				<path class="st6" d="M86.1,433.9l-4.4,16.8h-3.1l-4.2-16.8h-4.3l-4.2,16.8h-3l-4.4-16.8h-4.9v-2.4h4.3l-2.7-10.2h2.8l2.5,10.2
					h7.5l2.5-10.2h3.2l2.5,10.2H84l2.5-10.2h2.8l-2.6,10.2h4.2v2.4H86.1z M61.2,433.9l3.2,12.5l3.1-12.5H61.2z M72.3,425.6l-1.6,6
					h3.1L72.3,425.6z M77.2,433.9l3.1,12.5l3.2-12.5H77.2z"/>
			</g>
		</g>
		<g>
			<path class="st6" d="M135.4,364.2c-5.3,0-9.6,4.3-9.6,9.6c0,5.3,4.3,9.6,9.6,9.6c5.3,0,9.6-4.3,9.6-9.6
				C145.1,368.5,140.7,364.2,135.4,364.2z M135.4,379c-2.9,0-5.3-2.3-5.3-5.3c0-2.9,2.4-5.3,5.3-5.3c2.9,0,5.3,2.4,5.3,5.3
				C140.7,376.7,138.4,379,135.4,379z"/>
			<rect x="101.9" y="364.2" class="st6" width="4.3" height="19.2"/>
			<path class="st6" d="M93.7,365.8c-1.5-1-3.3-1.6-5.3-1.6c-5.3,0-9.6,4.3-9.6,9.6c0,5.3,4.3,9.6,9.6,9.6c2,0,3.8-0.6,5.3-1.6v1.6
				H98v-19.2h-4.3V365.8z M88.4,379c-2.9,0-5.3-2.3-5.3-5.3c0-2.9,2.4-5.3,5.3-5.3c2.9,0,5.3,2.4,5.3,5.3
				C93.7,376.7,91.3,379,88.4,379z"/>
			<path class="st6" d="M71.6,365.8c-1.5-1-3.3-1.6-5.3-1.6c-5.3,0-9.6,4.3-9.6,9.6c0,5.3,4.3,9.6,9.6,9.6c2,0,3.8-0.6,5.3-1.6v1.6
				H76v-25.7h-4.3V365.8z M66.4,379c-2.9,0-5.3-2.3-5.3-5.3c0-2.9,2.4-5.3,5.3-5.3c2.9,0,5.3,2.4,5.3,5.3
				C71.6,376.7,69.3,379,66.4,379z"/>
			<path class="st6" d="M117.6,371.8c-1.1-0.3-3.9-0.9-3.8-2.3c0-1.2,1.5-1.6,2.5-1.6c2.9,0,3,2.3,3,2.3h4.2c0,0-0.3-6-7.1-6
				c-3.2,0-7,1.7-7.1,5.5c0,0.3-0.3,3.8,5.4,5.1c3,0.7,4.6,1.2,4.6,3c0,0-0.2,1.9-2.7,1.9c-3.8,0-3.4-3-3.4-3h-4.3
				c0,0-0.7,6.7,7.6,6.7c0,0,7,0.3,7-6C123.7,376.4,123.4,373.3,117.6,371.8z"/>
		</g>
		<g>
			<path class="st6" d="M170.3,380.8c-1.3,1.7-3.3,2.6-5.7,2.6c-4.8,0-8.8-4.1-8.8-8.6c0-5,3.9-8.8,8.9-8.8c2.2,0,4.4,0.9,5.7,2.4
				v-1.9h3.1v14.4c0,5.4-3.3,8.7-8.9,8.7c-3.8,0-6.8-2-8.2-5.2h3.5c1.2,1.6,2.7,2.4,4.8,2.4C168.3,386.7,170.3,384.6,170.3,380.8
				L170.3,380.8z M170.3,374.7c0-3.9-3-5.9-5.8-5.9c-3.1,0-5.7,2.7-5.7,5.9c0,3.2,2.6,5.9,5.7,5.9
				C168.2,380.6,170.3,377.4,170.3,374.7z"/>
			<path class="st6" d="M176.8,364.5v-3.6h3.1v3.6H176.8z M176.8,383v-16.6h3.1V383H176.8z"/>
			<path class="st6" d="M184,383v-13.7h-1.5v-2.8h1.5v-0.7c0-3.2,2.2-4.8,5.3-4.8h0.7v2.8c-2,0-2.9,0.7-2.9,1.9v0.8h2.9v2.8h-2.9
				V383H184z"/>
			<path class="st6" d="M193.6,383v-13.7h-2.2v-2.8h2.2v-5.6h3.1v5.6h2.7v2.8h-2.7V383H193.6z"/>
			<path class="st6" d="M223.7,377.5c-1.3,3.7-4.5,5.9-8.2,5.9c-4.8,0-8.5-3.8-8.5-8.5c0-5,3.6-8.9,8.5-8.9c3.8,0,7.2,2.4,8.2,5.9
				h-3.4c-0.9-1.9-2.4-3.1-4.7-3.1c-3.3,0-5.4,2.5-5.4,5.9c0,3.3,2.2,5.9,5.4,5.9c2.1,0,3.8-1.1,4.7-3H223.7z"/>
			<path class="st6" d="M240.3,383v-2.6h-0.1c-1.2,2-3.3,3-5.6,3c-4.8,0-8.8-3.6-8.8-8.4c0-5.3,3.8-9,8.7-9c2.4,0,4.5,0.9,5.7,2.8
				h0.1v-2.3h3.1V383H240.3z M240.4,374.7c0-3.2-2.3-5.9-5.8-5.9c-3.1,0-5.6,2.7-5.6,5.9c0,3.1,2.5,5.8,5.6,5.8
				C237.8,380.6,240.4,377.9,240.4,374.7z"/>
			<path class="st6" d="M246.8,383v-16.6h2.9v1.5h0.1c0.7-1.1,2-1.8,4.2-1.9v3.2c-2.7,0.1-4.1,1.7-4.1,4.5v9.3H246.8z"/>
			<path class="st6" d="M269.8,383v-2.4h-0.1c-1.3,1.8-3.4,2.8-5.9,2.8c-4.8,0-8.6-3.6-8.6-8.5c0-5.1,3.6-8.9,8.5-8.9
				c2.2,0,4.4,0.8,5.7,2.5h0.1v-7.6h3.1V383H269.8z M264,368.8c-3.2,0-5.6,2.7-5.6,5.9c0,3.1,2.5,5.8,5.6,5.8c3.1,0,5.8-2.6,5.8-5.7
				C269.8,371.5,267.5,368.8,264,368.8z"/>
		</g>
	</g>
	<g>
		<g>
			<polyline class="st7" points="353.5,167.9 353.5,168.4 353,168.4 			"/>
			<line class="st8" x1="352" y1="168.4" x2="56.1" y2="168.4"/>
			<polyline class="st7" points="55.6,168.4 55.1,168.4 55.1,167.9 			"/>
			<line class="st9" x1="55.1" y1="166.9" x2="55.1" y2="52.2"/>
			<polyline class="st7" points="55.1,51.7 55.1,51.2 55.6,51.2 			"/>
			<line class="st8" x1="56.6" y1="51.2" x2="352.5" y2="51.2"/>
			<polyline class="st7" points="353,51.2 353.5,51.2 353.5,51.7 			"/>
			<line class="st9" x1="353.5" y1="52.7" x2="353.5" y2="167.4"/>
		</g>
	</g>
	<rect x="55.1" y="51.2" class="st10" width="298.5" height="117.1"/>
	<g>
		<path class="st5" d="M161.6,121.6h-33.9v-2.7h15.2v-7h-11v-11.4h22.1v-5.8h-22.2v-2.7h25.4v11.2h-22.1v6h23v2.7h-12v7h15.4V121.6z
			"/>
		<path class="st5" d="M164.5,118.2h13.2V105h3.2v13.2h17.3v2.7h-33.7V118.2z M194.2,96.6c0,4.5,0,9.6-1.4,17.1l-3.3-0.4
			c1.4-7.1,1.4-12.2,1.4-16.7v-1h-22.8v-2.7h26.1V96.6z"/>
		<path class="st5" d="M229.7,94.5h9.7v-5.4h3.3v21.9h-3.3v-5.3h-9.7c-1.7,2-4.4,3.1-7.5,3.1c-5.5,0-9.6-3.6-9.6-8.7
			c0-5.2,4.1-8.8,9.6-8.8C225.3,91.4,228,92.6,229.7,94.5z M222.2,106.2c3.7,0,6.4-2.5,6.4-5.9c0-3.5-2.7-6-6.4-5.9
			c-3.8,0-6.5,2.4-6.5,5.9C215.7,103.6,218.4,106.2,222.2,106.2z M230.4,112c7.7,0,12.4,2.6,12.4,7c0,4.5-4.7,7.1-12.4,7.1
			c-7.7,0-12.4-2.6-12.4-7.1C218,114.6,222.7,112,230.4,112z M230.4,123.5c5.7,0,9.2-1.7,9.2-4.5c0-2.8-3.5-4.5-9.2-4.5
			c-5.7,0-9.2,1.7-9.2,4.5C221.2,121.8,224.7,123.5,230.4,123.5z M231.8,100.2c0,1-0.2,2-0.5,2.9h8.1v-5.9h-8.1
			C231.6,98.1,231.8,99.1,231.8,100.2z"/>
		<path class="st5" d="M259,91.3c3.2,0,5.9,1.2,7.6,3.3h9.5v-5.4h3.3V111h-3.3v-5.3h-9.5c-1.7,2.1-4.4,3.3-7.7,3.3
			c-5.5,0-9.6-3.6-9.6-8.9C249.4,95,253.5,91.3,259,91.3z M259,106.2c3.6,0,6.4-2.5,6.4-6.1c0-3.5-2.8-6-6.4-6c-3.8,0-6.5,2.6-6.5,6
			C252.6,103.7,255.3,106.2,259,106.2z M279.5,126.2h-3.3v-10.5h-21.6V113h24.9V126.2z M276.2,102.9v-5.6h-8.1
			c0.3,0.9,0.5,1.8,0.5,2.8c0,1-0.2,2-0.4,2.8H276.2z"/>
	</g>
</g>
</svg>
