<?xml version="1.0" encoding="utf-8"?>
<!-- Generator: Adobe Illustrator 26.2.0, SVG Export Plug-In . SVG Version: 6.00 Build 0)  -->
<svg version="1.1" id="레이어_1" xmlns="http://www.w3.org/2000/svg" xmlns:xlink="http://www.w3.org/1999/xlink" x="0px"
	 y="0px" viewBox="0 0 500 500" style="enable-background:new 0 0 500 500;" xml:space="preserve">
<style type="text/css">
	.st0{fill:#F0F0F0;}
</style>
<g>
	<path class="st0" d="M397,220.9H103v-71.1H397V220.9z M118.2,205.8h263.6V165H118.2V205.8z"/>
	<g>
		<path class="st0" d="M257.6,164.6h-32.2c-9.2,0-18.1-3.7-24.5-10.2c-6.2-6.3-9.6-14.6-9.5-23.3c0.2-18.1,14.6-32.5,32.7-32.7h0
			c8.6,0,17,3.3,23.3,9.5c6.5,6.4,10.2,15.4,10.2,24.5V164.6z M224.2,113.4L224.2,113.4c-9.7,0.1-17.6,8.1-17.8,17.8
			c-0.1,4.6,1.8,9.1,5.1,12.5c3.6,3.6,8.6,5.7,13.7,5.7h17.1v-17.1c0-5.1-2.1-10.1-5.7-13.7C233.3,115.2,229.1,113.3,224.2,113.4z"
			/>
		<path class="st0" d="M274.7,164.6h-32.2v-32.2c0-9.2,3.7-18.1,10.2-24.5c6.2-6.1,14.3-9.5,22.9-9.5c0.1,0,0.3,0,0.4,0h0
			c18.1,0.2,32.5,14.6,32.7,32.7c0.1,8.7-3.3,17-9.5,23.3C292.8,160.8,283.8,164.6,274.7,164.6z M257.6,149.4h17.1
			c5.1,0,10.1-2.1,13.7-5.7c3.4-3.4,5.2-7.8,5.1-12.5c-0.1-9.7-8.1-17.6-17.8-17.8c-4.7-0.2-9.1,1.8-12.5,5.1
			c-3.6,3.6-5.7,8.6-5.7,13.7V149.4z"/>
	</g>
	<rect x="242.4" y="142" class="st0" width="15.2" height="245.4"/>
	<rect x="126.6" y="296.2" class="st0" width="246.8" height="15.2"/>
	<path class="st0" d="M374,401.7H163.3c-22.8,0-41.3-18.5-41.3-41.3V206.2h250.9v145.9h-15.2V221.4H137.2v139.1
		c0,14.4,11.7,26.1,26.1,26.1H374V401.7z"/>
</g>
</svg>
