<?xml version="1.0" encoding="utf-8"?>
<!-- Generator: Adobe Illustrator 26.2.0, SVG Export Plug-In . SVG Version: 6.00 Build 0)  -->
<svg version="1.1" id="레이어_1" xmlns="http://www.w3.org/2000/svg" xmlns:xlink="http://www.w3.org/1999/xlink" x="0px"
	 y="0px" viewBox="0 0 402.7 402.7" style="enable-background:new 0 0 402.7 402.7;" xml:space="preserve">
<style type="text/css">
	.st0{fill:#F0F0F0;}
</style>
<g>
	<path class="st0" d="M348.3,172.3H54.4v-71.1h293.9V172.3z M69.5,157.1h263.6v-40.8H69.5V157.1z"/>
	<g>
		<path class="st0" d="M208.9,115.9h-32.2c-9.2,0-18.1-3.7-24.5-10.2c-6.2-6.3-9.6-14.6-9.5-23.3c0.2-18.1,14.6-32.5,32.7-32.7h0
			c8.6,0,17,3.3,23.3,9.5c6.5,6.4,10.2,15.4,10.2,24.5V115.9z M175.5,64.8L175.5,64.8c-9.7,0.1-17.6,8.1-17.8,17.8
			c-0.1,4.6,1.8,9.1,5.1,12.5c3.6,3.6,8.6,5.7,13.7,5.7h17.1V83.7c0-5.1-2.1-10.1-5.7-13.7C184.6,66.6,180.4,64.7,175.5,64.8z"/>
		<path class="st0" d="M226,115.9h-32.2V83.7c0-9.2,3.7-18.1,10.2-24.5c6.2-6.1,14.3-9.5,22.9-9.5c0.1,0,0.3,0,0.4,0h0
			c18.1,0.2,32.5,14.6,32.7,32.7c0.1,8.7-3.3,17-9.5,23.3C244.1,112.2,235.2,115.9,226,115.9z M208.9,100.8H226
			c5.1,0,10.1-2.1,13.7-5.7c3.4-3.4,5.2-7.8,5.1-12.5c-0.1-9.7-8.1-17.6-17.8-17.8c-4.7-0.2-9.1,1.8-12.5,5.1
			c-3.6,3.6-5.7,8.6-5.7,13.7V100.8z"/>
	</g>
	<rect x="193.8" y="93.3" class="st0" width="15.2" height="245.4"/>
	<rect x="78" y="247.5" class="st0" width="246.8" height="15.2"/>
	<path class="st0" d="M325.4,353.1H114.6c-22.8,0-41.3-18.5-41.3-41.3V157.5h250.9v145.9h-15.2V172.7H88.5v139.1
		c0,14.4,11.7,26.1,26.1,26.1h210.8V353.1z"/>
</g>
</svg>
