<?xml version="1.0" encoding="utf-8"?>
<!-- Generator: Adobe Illustrator 26.2.0, SVG Export Plug-In . SVG Version: 6.00 Build 0)  -->
<svg version="1.1" id="레이어_1" xmlns="http://www.w3.org/2000/svg" xmlns:xlink="http://www.w3.org/1999/xlink" x="0px"
	 y="0px" viewBox="0 0 232.7 232.7" style="enable-background:new 0 0 232.7 232.7;" xml:space="preserve">
<style type="text/css">
	.st0{fill:#E50012;}
	.st1{fill:#FFFFFF;}
</style>
<g>
	<rect class="st0" width="232.7" height="232.7"/>
	<path class="st1" d="M50.4,57.7c-5.6,0-10.2-4.5-10.2-10.2c0-5.6,4.6-10.2,10.2-10.2c5.6,0,10.2,4.6,10.2,10.2
		C60.6,53.2,56,57.7,50.4,57.7 M50.4,29c-10.2,0-18.5,8.3-18.5,18.6c0,10.2,8.3,18.5,18.5,18.5c10.2,0,18.6-8.3,18.6-18.5
		C69,37.3,60.7,29,50.4,29"/>
	<path class="st1" d="M117.2,57.7c-5.6,0-10.2-4.5-10.2-10.2c0-5.6,4.6-10.2,10.2-10.2c5.6,0,10.2,4.6,10.2,10.2
		C127.4,53.2,122.8,57.7,117.2,57.7 M117.2,29c-10.2,0-18.5,8.3-18.5,18.6c0,10.2,8.3,18.5,18.5,18.5c10.2,0,18.6-8.3,18.6-18.5
		C135.8,37.3,127.4,29,117.2,29"/>
	<path class="st1" d="M184,57.7c-5.6,0-10.2-4.5-10.2-10.2c0-5.6,4.6-10.2,10.2-10.2c5.6,0,10.2,4.6,10.2,10.2
		C194.2,53.2,189.6,57.7,184,57.7 M184,29c-10.2,0-18.5,8.3-18.5,18.6c0,10.2,8.3,18.5,18.5,18.5c10.2,0,18.6-8.3,18.6-18.5
		C202.6,37.3,194.2,29,184,29"/>
	<path class="st1" d="M50.4,124.5c-5.6,0-10.2-4.5-10.2-10.2c0-5.6,4.6-10.2,10.2-10.2c5.6,0,10.2,4.6,10.2,10.2
		C60.6,120,56,124.5,50.4,124.5 M50.4,95.8c-10.2,0-18.5,8.3-18.5,18.6c0,10.2,8.3,18.6,18.5,18.6c10.2,0,18.6-8.3,18.6-18.6
		C69,104.1,60.7,95.8,50.4,95.8"/>
	<path class="st1" d="M117.2,124.5c-5.6,0-10.2-4.5-10.2-10.2c0-5.6,4.6-10.2,10.2-10.2c5.6,0,10.2,4.6,10.2,10.2
		C127.4,120,122.8,124.5,117.2,124.5 M117.2,95.8c-10.2,0-18.5,8.3-18.5,18.6c0,10.2,8.3,18.6,18.5,18.6c10.2,0,18.6-8.3,18.6-18.6
		C135.8,104.1,127.4,95.8,117.2,95.8"/>
	<path class="st1" d="M184,124.5c-5.6,0-10.2-4.5-10.2-10.2c0-5.6,4.6-10.2,10.2-10.2c5.6,0,10.2,4.6,10.2,10.2
		C194.2,120,189.6,124.5,184,124.5 M184,95.8c-10.2,0-18.5,8.3-18.5,18.6c0,10.2,8.3,18.6,18.5,18.6c10.2,0,18.6-8.3,18.6-18.6
		C202.6,104.1,194.2,95.8,184,95.8"/>
	<path class="st1" d="M184,191.3c-5.6,0-10.2-4.5-10.2-10.2c0-5.6,4.6-10.2,10.2-10.2c5.6,0,10.2,4.6,10.2,10.2
		C194.2,186.8,189.6,191.3,184,191.3 M184,162.6c-10.2,0-18.5,8.3-18.5,18.6c0,10.2,8.3,18.5,18.5,18.5c10.2,0,18.6-8.3,18.6-18.5
		C202.6,170.9,194.2,162.6,184,162.6"/>
	<rect x="119.1" y="162.6" class="st1" width="8.4" height="37.1"/>
	<path class="st1" d="M103.3,162.6v3.1c-2.9-1.9-6.4-3.1-10.2-3.1c-10.2,0-18.5,8.3-18.5,18.6c0,10.2,8.3,18.5,18.5,18.5
		c3.8,0,7.3-1.1,10.2-3.1v3.1h8.3v-37.1H103.3z M93.1,191.3c-5.6,0-10.2-4.5-10.2-10.2c0-5.6,4.6-10.2,10.2-10.2
		c5.6,0,10.2,4.6,10.2,10.2C103.3,186.8,98.7,191.3,93.1,191.3"/>
	<path class="st1" d="M60.7,150v15.7c-2.9-1.9-6.4-3.1-10.2-3.1c-10.2,0-18.5,8.3-18.5,18.6c0,10.2,8.3,18.5,18.5,18.5
		c3.8,0,7.3-1.1,10.2-3.1v3.1H69V150H60.7z M50.4,191.3c-5.6,0-10.2-4.5-10.2-10.2c0-5.6,4.6-10.2,10.2-10.2
		c5.6,0,10.2,4.6,10.2,10.2C60.6,186.8,56,191.3,50.4,191.3"/>
	<path class="st1" d="M161.4,188.1c0,12.1-13.6,11.6-13.6,11.6c-15.9,0-14.6-13-14.6-13h8.3c0,0-0.8,5.8,6.6,5.8
		c4.7,0,5.2-3.6,5.2-3.6c0-3.4-3-4.4-8.9-5.8c-11.2-2.6-10.5-9.3-10.5-9.9c0-7.5,7.4-10.7,13.6-10.7c13.1,0,13.7,11.5,13.7,11.5
		h-8.2c0,0-0.2-4.3-5.9-4.4c-2,0-4.9,0.8-4.9,3.1c0,2.7,5.4,4,7.4,4.5C160.7,180.3,161.4,186.2,161.4,188.1"/>
</g>
</svg>
