<?xml version="1.0" encoding="utf-8"?>
<!-- Generator: Adobe Illustrator 26.2.0, SVG Export Plug-In . SVG Version: 6.00 Build 0)  -->
<svg version="1.1" id="레이어_1" xmlns="http://www.w3.org/2000/svg" xmlns:xlink="http://www.w3.org/1999/xlink" x="0px"
	 y="0px" viewBox="0 0 1246.3 332.3" style="enable-background:new 0 0 1246.3 332.3;" xml:space="preserve">
<style type="text/css">
	.st0{fill:#142E7F;}
	.st1{fill:#E60033;}
	
		.st2{clip-path:url(#SVGID_00000032615917750129510030000012258886001036664728_);fill:url(#SVGID_00000138568042831371975840000010454297288095134862_);}
	.st3{fill:#8C9091;}
</style>
<g>
	<g>
		<path class="st0" d="M1174.3,108.1v31.7h22.8v29.5l-1,0.1c-3.2,0.4-6.2,0.6-9.2,0.6c-9,0-17-1.9-24.4-6
			c-13.1-7.1-20.7-18.7-23.3-35.5c-4.4-28.1,12.5-52.2,40-57.3c5-0.9,10-1.4,14.8-1.4c15.3,0,30.1,4.6,43.9,13.8c0,0,0.1,0,0.1,0.1
			v-37c-0.5-0.3-1-0.6-1.6-0.9c-1.5-0.9-3-1.8-4.6-2.6c-9.5-4.6-20.2-7.3-33.6-8.4c-5.2-0.4-10.3-0.7-15.1-0.7
			c-20.5,0-38.3,4-54.4,12.2c-18.9,9.6-32.3,23.8-39.6,42c-4.9,12.3-6.8,25.6-5.4,39.8c1.3,13.8,5.5,26.2,12.6,36.9
			c12.8,19.2,31.4,31.6,57,37.8c9.6,2.3,19.8,3.5,30.2,3.5c4.2,0,8.4-0.2,12.7-0.6c16.6-1.4,34.1-3.5,49.9-11.9v-85.7H1174.3z"/>
		<path class="st0" d="M1017.1,201l-68.9-87.8V201H896c0,0,0.1-97.3,0-128.4c0-7.6-0.9-16.3-6.8-23.1c-1.7-1.9-3.8-3.4-6.1-5
			c-0.9-0.6-1.8-1.2-2.6-1.9v-3.6h61.1l69.5,84v-84h46.7v162H1017.1z"/>
		<path class="st0" d="M777.6,206c-13.6,0-26.9-2.3-39.6-7c-24.6-9-39-26.3-41.3-51.6c-1-11.6-0.5-69.5-0.6-74.9
			c-0.1-3.5-0.4-6.8-1-9.8c-1.3-6.7-4.6-15.8-14.9-19.5V39h68v108.8c0,13.9,15.4,22.9,30.2,22.9c0.9,0,1.7,0,2.6-0.1
			c18.3-0.9,29.3-13,29.3-32.3c0.1-22.3,0-99.2,0-99.2h50.5c0,0,0.1,72.9,0,95.4c0,15.9-3.1,28.3-9.5,38.8
			c-8.7,14.2-21.6,23.5-39.6,28.2C800.1,204.5,788.6,206,777.6,206"/>
		<path class="st0" d="M595.7,206.3c-38-0.4-55-5.8-55-5.8l-16.5-46.4c7.9,4.2,42.9,17.9,73.9,16.8c9.2-0.3,16.9-4,18.8-11
			c1.4-5.2-3.1-9.9-7.9-13c-10.9-7.1-39.8-13.2-58-22.1c-27.3-13.4-32.4-40.3-23.2-59c5.2-10.5,14.6-18.4,27-23.3
			c15.9-6.3,31.8-8.1,48-8.1c14.7,0,41,4.5,54.2,11v39.4l-0.4-0.3c-1.4-0.9-2.7-1.8-4-2.6c-11.7-7.5-22.6-10.4-36.2-12.8
			c-13.3-2.3-24,0.7-27.2,1.7c-4.5,1.4-7.6,4.2-8.5,7.7c-1.8,7.6,1.8,15.4,28.2,24.2c12.7,4.3,26.4,9.5,29.4,10.9
			c31.1,14.8,43.2,37.7,31.2,61.1c-6.3,12.4-18.3,20.9-36.2,26.3C622,204.7,609.7,206.3,595.7,206.3"/>
		<path class="st0" d="M329.6,201.2c0,0,32.4-89,42.8-117.9l7.3-20.2c3.2-10.3-0.2-16.8-10.2-20V39h87.9l60.1,162h-58.1l-9.8-29.5
			h-59.7l-9.3,29.7H329.6z M399.5,140.4h40.1l-20.9-64.9L399.5,140.4z"/>
		<path class="st0" d="M281.9,146.6c8.4,43.2-22.6,51.7-64.1,27.6c-19.6-11.4-56.8-33.5-110-44.7c0,0-49.7-17.4-85.1,8.2
			C7.2,148.7,2.4,161.8,0.9,169.5c-1.6,10,2.1,35.9,30.5,33.1c4.9-0.5,9.4-1.8,13.6-3.9l-0.1,0c-19.1,8.4-29.5-11.8-14.9-27.6
			c20.4-22,58.4-10.3,58.4-10.3c54,11.5,109.8,52.5,136.5,59.8c20.1,5.5,40.5,3.2,51.4-8.8C287.1,199.9,290.6,177.6,281.9,146.6"/>
		<path class="st1" d="M126.9,45.5c-32.6,57.2-45.7,152.2-95.4,157.1C1.9,205.5-0.8,177,1.3,168.2C-4.1,190.5,7,217,36.6,222.3
			c29.5,5.3,72.9-5,93.7-51.3c0,0,29.9-67.7,41.3-91c7.5-15.3,13.8-26.7,20.8-34.6c26.7-30.4,45.7-1.4,46.4-0.6
			c-13.4-20.9-34.6-45.7-58-44.8C163.6,0.7,147.3,9.8,126.9,45.5"/>
		<g>
			<defs>
				<path id="SVGID_1_" d="M192.5,45.3c-6.7,7.7-12.9,18.7-20.1,33.2c0,0,0,0,0.1,0c14.1-29.5,55.2,4.2,68.4,67.9
					c5.2,24.9,0.2,39.7-38.7,18.6l0,0.1c6,3.3,11.3,6.4,15.6,8.9c41.5,24.1,72.5,15.6,64.1-27.6c0.3,1.2,0.6,2.3,0.9,3.5
					c-9.7-51.1-38.9-97.4-43.9-105.3c-0.5-0.6-8.9-13.3-22.1-13.3C209.9,31.5,201.6,34.9,192.5,45.3"/>
			</defs>
			<clipPath id="SVGID_00000129903155098054908570000005775845992599283850_">
				<use xlink:href="#SVGID_1_"  style="overflow:visible;"/>
			</clipPath>
			
				<linearGradient id="SVGID_00000120548625113044222100000015863426162757343662_" gradientUnits="userSpaceOnUse" x1="-54.843" y1="600.5919" x2="-49.9533" y2="600.5919" gradientTransform="matrix(13.8979 29.8041 29.8041 -13.8979 -16940.4941 10023.6465)">
				<stop  offset="0" style="stop-color:#073B8E"/>
				<stop  offset="0.6" style="stop-color:#E51D46"/>
				<stop  offset="1" style="stop-color:#E51D46"/>
			</linearGradient>
			
				<polygon style="clip-path:url(#SVGID_00000129903155098054908570000005775845992599283850_);fill:url(#SVGID_00000120548625113044222100000015863426162757343662_);" points="
				269.2,-13.7 354.1,168.4 193.4,243.3 108.5,61.2 			"/>
		</g>
	</g>
	<g>
		<path class="st3" d="M718.2,293.3c-1.2-0.6-7.3-2.9-13.5-5c-8.3-2.8-16.5-6.6-14.7-14c0.6-2.4,2.6-4.3,5.5-5.3
			c2.5-0.8,7.6-1.9,13.7-0.9c6.1,1,11.1,2.3,16.3,5.4v-12.8c-6.1-2.5-16.8-4.3-23-4.3c-8.7,0-15.3,1.1-21.6,3.6
			c-5.4,2.2-9.3,5.5-11.4,9.8c-2,4-2.3,8.8-0.8,13.1c1.6,4.8,5.3,8.8,10.6,11.4c3.9,1.9,9,3.6,13.9,5.2c5.6,1.8,10.5,3.4,13.4,5.3
			c3.8,2.5,5.5,5.5,4.7,8.6c-1.1,4.1-5.1,6.6-10.9,6.8c-11.2,0.4-23.5-3.2-30.7-6l5.5,15.6c2.7,0.6,10.4,2.2,24,2.3
			c6.5,0,12-0.7,16.9-2.2c7.8-2.4,12.9-6,15.5-11.2c2-4,2.4-7.9,1.1-11.6C731,301.8,726,297,718.2,293.3z"/>
		<path class="st3" d="M1047.6,259.8c3.3,3.8,3.7,8.5,3.8,12.3c0,12.6,0,48.3,0,57.7h19.8v-71.1h-24.7
			C1046.8,259,1047.2,259.3,1047.6,259.8z"/>
		<path class="st3" d="M821.4,290.5c-0.5-6.1-2.2-11.6-4.9-16.2c-5-8.4-12.4-13.9-22.5-16.6c-3.8-1-7.9-1.6-12-1.6h-1.7
			c-4.2,0-8.2,0.5-12,1.6c-10.1,2.7-17.4,8.2-22.5,16.6c-2.8,4.7-4.4,10.1-4.9,16.2c-0.1,1.2-0.1,2.4-0.1,3.6c0,1.2,0,2.4,0.1,3.6
			c0.5,6.1,2.2,11.6,4.9,16.2c5,8.4,12.4,13.9,22.5,16.6c3.8,1,7.9,1.6,12,1.6h1.7c4.2,0,8.2-0.5,12-1.6
			c10.1-2.7,17.4-8.2,22.5-16.6c2.8-4.7,4.4-10.1,4.9-16.2c0.1-1.2,0.1-2.4,0.1-3.6C821.5,293,821.5,291.8,821.4,290.5L821.4,290.5z
			 M802.8,298.5L802.8,298.5c-1.2,8.6-4.7,14.5-10.8,18.2c-3.3,2-6.8,3-10.8,3.1c-4.1-0.1-7.7-1.1-10.9-3.1
			c-6.1-3.7-9.6-9.7-10.8-18.2c-0.2-1.4-0.3-2.8-0.3-4.3c0-1.6,0.1-3,0.3-4.3c1.2-8.6,4.7-14.5,10.8-18.2c3.3-2,6.8-3,10.8-3.1
			c4.1,0.1,7.7,1.1,10.9,3.1c6.1,3.7,9.6,9.7,10.8,18.2c0.2,1.4,0.3,2.8,0.3,4.3C803.1,295.7,803,297.1,802.8,298.5z"/>
		<path class="st3" d="M1163.6,290.5c-0.5-6.1-2.2-11.6-4.9-16.2c-5-8.4-12.4-13.9-22.5-16.6c-3.8-1-7.9-1.6-12-1.6h-1.7
			c-4.2,0-8.2,0.5-12,1.6c-10.1,2.7-17.4,8.2-22.5,16.6c-2.8,4.7-4.4,10.1-4.9,16.2c-0.1,1.2-0.1,2.4-0.1,3.6c0,1.2,0,2.4,0.1,3.6
			c0.5,6.1,2.2,11.6,4.9,16.2c5,8.4,12.4,13.9,22.5,16.6c3.8,1,7.9,1.6,12,1.6h1.7c4.2,0,8.2-0.5,12-1.6
			c10.1-2.7,17.4-8.2,22.5-16.6c2.8-4.7,4.4-10.1,4.9-16.2c0.1-1.2,0.1-2.4,0.1-3.6C1163.7,293,1163.7,291.8,1163.6,290.5
			L1163.6,290.5z M1145,298.5L1145,298.5c-1.2,8.6-4.7,14.5-10.8,18.2c-3.3,2-6.8,3-10.8,3.1c-4.1-0.1-7.7-1.1-10.9-3.1
			c-6.1-3.7-9.6-9.7-10.8-18.2c-0.2-1.4-0.3-2.8-0.3-4.3c0-1.6,0.1-3,0.3-4.3c1.2-8.6,4.7-14.5,10.8-18.2c3.3-2,6.8-3,10.8-3.1
			c4.1,0.1,7.7,1.1,10.9,3.1c6.1,3.7,9.6,9.7,10.8,18.2c0.2,1.4,0.3,2.8,0.3,4.3C1145.3,295.7,1145.2,297.1,1145,298.5z"/>
		<path class="st3" d="M1228.9,258.8v42.7l-35.4-42.7h-23.1c0.5,0.4,1,0.8,1.4,1.3c3.2,3.7,3.7,8.4,3.7,12.1c0,12.5,0,48.3,0,57.4
			h19.9v-44.7l35.1,44.7h15.7v-70.8H1228.9z"/>
		<path class="st3" d="M944.3,259.2c0,7.8,0,35,0,43.9c0,10.1-6,16.6-15.6,17.1c-0.5,0-0.9,0-1.3,0c-7.7,0-16.1-4.9-16.1-12.7v-48.3
			h-24.9c1.9,1.7,3.7,4.3,4.5,8.4c0.3,1.6,0.5,3.2,0.5,4.9c0,0.6,0,2.8,0,5.7c0,8.7-0.1,24.9,0.3,28.9c1,10.7,6.9,18.2,17.7,22.1
			c5.6,2.1,11.6,3.1,17.6,3.1c4.9,0,10.1-0.7,15.3-2.1c7.8-2,13.4-6,17.1-12.1c2.8-4.6,4.1-9.9,4.1-16.9c0-8.8,0-34.5,0-42.1H944.3z
			"/>
		<path class="st3" d="M852.6,270.4v-11.8l-24.7,0c0.4,0.3,0.8,0.7,1.1,1.1c3.3,3.8,3.7,8.5,3.8,12.3c0,12.6,0,48.3,0,57.7h19.8v0
			h34.5v-10.8h-34.5V270.4z"/>
		<path class="st3" d="M973.9,269.4v4.9c1.7-1.9,4.3-3.7,8.4-4.5c1.5-0.3,3.1-0.4,4.7-0.5h9.3v60.3h19.7v-60.3h9.3
			c1.6,0,3.2,0.2,4.7,0.5c4.1,0.8,6.8,2.5,8.4,4.5v-4.9v-10.8h-64.5V269.4z"/>
	</g>
</g>
</svg>
