<?xml version="1.0" encoding="utf-8"?>
<!-- Generator: Adobe Illustrator 26.2.0, SVG Export Plug-In . SVG Version: 6.00 Build 0)  -->
<svg version="1.1" id="레이어_1" xmlns="http://www.w3.org/2000/svg" xmlns:xlink="http://www.w3.org/1999/xlink" x="0px"
	 y="0px" viewBox="0 0 805.1 214.7" style="enable-background:new 0 0 805.1 214.7;" xml:space="preserve">
<style type="text/css">
	.st0{fill:#142E7F;}
	.st1{fill:#E60033;}
	
		.st2{clip-path:url(#SVGID_00000153671110602352476730000012308291835537389955_);fill:url(#SVGID_00000093148673965321555160000003756831846693790873_);}
	.st3{fill:#8C9091;}
</style>
<g>
	<g>
		<path class="st0" d="M758.6,69.9v20.5h14.7v19l-0.6,0.1c-2,0.3-4,0.4-5.9,0.4c-5.8,0-11-1.3-15.8-3.8
			c-8.5-4.6-13.4-12.1-15.1-22.9c-2.8-18.2,8.1-33.7,25.8-37c3.2-0.6,6.4-0.9,9.6-0.9c9.9,0,19.4,3,28.4,8.9c0,0,0,0,0.1,0V30.2
			c-0.3-0.2-0.7-0.4-1-0.6c-1-0.6-1.9-1.2-2.9-1.7c-6.1-3-13-4.7-21.7-5.4c-3.4-0.3-6.6-0.4-9.7-0.4c-13.3,0-24.7,2.6-35.1,7.9
			c-12.2,6.2-20.8,15.3-25.6,27.1c-3.2,7.9-4.4,16.6-3.5,25.7c0.8,8.9,3.6,16.9,8.1,23.8c8.3,12.4,20.3,20.4,36.8,24.4
			c6.2,1.5,12.8,2.3,19.5,2.3c2.7,0,5.4-0.1,8.2-0.4c10.7-0.9,22-2.3,32.2-7.7V69.9H758.6z"/>
		<path class="st0" d="M657,129.9l-44.5-56.7v56.7h-33.7c0,0,0.1-62.9,0-82.9c0-4.9-0.6-10.5-4.4-14.9c-1.1-1.3-2.5-2.2-3.9-3.2
			c-0.6-0.4-1.1-0.8-1.7-1.2v-2.3h39.5l44.9,54.3V25.2h30.2v104.6H657z"/>
		<path class="st0" d="M502.3,133.1c-8.8,0-17.4-1.5-25.6-4.5c-15.9-5.8-25.2-17-26.7-33.3c-0.7-7.5-0.3-44.9-0.4-48.4
			c0-2.2-0.3-4.4-0.6-6.4c-0.8-4.3-3-10.2-9.6-12.6v-2.7h44v70.3c0,8.9,9.9,14.8,19.5,14.8c0.5,0,1.1,0,1.7,0
			c11.8-0.6,18.9-8.4,18.9-20.9c0.1-14.4,0-64.1,0-64.1h32.6c0,0,0,47.1,0,61.6c0,10.3-2,18.3-6.1,25.1c-5.6,9.2-14,15.2-25.6,18.2
			C516.8,132.1,509.4,133.1,502.3,133.1"/>
		<path class="st0" d="M384.8,133.2c-24.6-0.3-35.6-3.8-35.6-3.8l-10.6-30c5.1,2.7,27.7,11.6,47.8,10.9c6-0.2,10.9-2.6,12.1-7.1
			c0.9-3.4-2-6.4-5.1-8.4c-7.1-4.6-25.7-8.5-37.4-14.3c-17.7-8.7-20.9-26-15-38.1c3.3-6.8,9.4-11.9,17.5-15
			c10.3-4.1,20.6-5.2,31-5.2c9.5,0,26.5,2.9,35,7.1v25.5l-0.3-0.2c-0.9-0.6-1.7-1.1-2.6-1.7c-7.6-4.8-14.6-6.7-23.4-8.3
			c-8.6-1.5-15.5,0.5-17.5,1.1c-2.9,0.9-4.9,2.7-5.5,5c-1.2,4.9,1.2,9.9,18.2,15.7c8.2,2.8,17.1,6.1,19,7
			c20.1,9.6,27.9,24.3,20.2,39.4c-4.1,8-11.8,13.5-23.4,17C401.8,132.3,393.9,133.2,384.8,133.2"/>
		<path class="st0" d="M212.9,130c0,0,20.9-57.5,27.6-76.1l4.7-13c2-6.6-0.1-10.9-6.6-12.9v-2.7h56.8l38.8,104.6h-37.5l-6.3-19.1
			h-38.6l-6,19.2H212.9z M258.1,90.7h25.9l-13.5-41.9L258.1,90.7z"/>
		<path class="st0" d="M182.1,94.7c5.4,27.9-14.6,33.4-41.4,17.8c-12.6-7.3-36.7-21.6-71.1-28.9c0,0-32.1-11.2-55,5.3
			c-10,7.2-13.1,15.7-14,20.6c-1,6.5,1.4,23.2,19.7,21.4c3.1-0.3,6-1.2,8.8-2.5l-0.1,0c-12.4,5.5-19.1-7.6-9.6-17.8
			c13.2-14.2,37.7-6.6,37.7-6.6c34.9,7.4,70.9,33.9,88.2,38.7c13,3.6,26.2,2.1,33.2-5.7C185.5,129.1,187.7,114.7,182.1,94.7"/>
		<path class="st1" d="M82,29.4c-21,37-29.5,98.3-61.6,101.5c-19.2,1.9-20.9-16.5-19.5-22.2c-3.5,14.4,3.6,31.5,22.8,34.9
			c19.1,3.4,47.1-3.2,60.5-33.2c0,0,19.3-43.7,26.7-58.8c4.9-9.9,8.9-17.3,13.4-22.4c17.2-19.6,29.5-0.9,30-0.4
			C145.7,15.4,132-0.6,116.8,0C105.7,0.5,95.1,6.3,82,29.4"/>
		<g>
			<defs>
				<path id="SVGID_1_" d="M124.3,29.3c-4.3,4.9-8.3,12.1-13,21.5c0,0,0,0,0,0c9.1-19,35.6,2.7,44.2,43.9c3.3,16.1,0.1,25.6-25,12
					l0,0.1c3.9,2.1,7.3,4.1,10.1,5.7c26.8,15.6,46.8,10.1,41.4-17.8c0.2,0.8,0.4,1.5,0.6,2.3c-6.3-33-25.1-62.9-28.3-68
					c-0.3-0.4-5.7-8.6-14.3-8.6C135.6,20.3,130.2,22.5,124.3,29.3"/>
			</defs>
			<clipPath id="SVGID_00000058565329474779943100000018385870603997903279_">
				<use xlink:href="#SVGID_1_"  style="overflow:visible;"/>
			</clipPath>
			
				<linearGradient id="SVGID_00000119089741369134821600000012199031483888637106_" gradientUnits="userSpaceOnUse" x1="-271.555" y1="517.9406" x2="-268.3963" y2="517.9406" gradientTransform="matrix(13.8979 29.8041 29.8041 -13.8979 -11535.1895 15318.9561)">
				<stop  offset="0" style="stop-color:#073B8E"/>
				<stop  offset="0.6" style="stop-color:#E51D46"/>
				<stop  offset="1" style="stop-color:#E51D46"/>
			</linearGradient>
			
				<polygon style="clip-path:url(#SVGID_00000058565329474779943100000018385870603997903279_);fill:url(#SVGID_00000119089741369134821600000012199031483888637106_);" points="
				173.9,-8.8 228.7,108.8 124.9,157.2 70.1,39.6 			"/>
		</g>
	</g>
	<g>
		<path class="st3" d="M463.9,189.5c-0.8-0.4-4.7-1.9-8.7-3.2c-5.3-1.8-10.6-4.3-9.5-9.1c0.4-1.6,1.7-2.8,3.6-3.4
			c1.6-0.5,4.9-1.3,8.9-0.6c3.9,0.7,7.1,1.5,10.5,3.5v-8.3c-3.9-1.6-10.8-2.8-14.9-2.8c-5.6,0-9.9,0.7-13.9,2.3
			c-3.5,1.4-6,3.5-7.4,6.3c-1.3,2.6-1.5,5.7-0.5,8.5c1.1,3.1,3.4,5.7,6.9,7.3c2.5,1.2,5.8,2.3,9,3.3c3.6,1.2,6.8,2.2,8.7,3.4
			c2.5,1.6,3.5,3.6,3,5.5c-0.7,2.6-3.3,4.3-7,4.4c-7.2,0.2-15.2-2.1-19.8-3.8l3.6,10c1.7,0.4,6.7,1.4,15.5,1.5
			c4.2,0,7.8-0.5,10.9-1.4c5.1-1.5,8.3-3.9,10-7.2c1.3-2.6,1.5-5.1,0.7-7.5C472.2,195,469,191.9,463.9,189.5z"/>
		<path class="st3" d="M676.7,167.8c2.1,2.4,2.4,5.5,2.4,7.9c0,8.1,0,31.2,0,37.3h12.8v-45.9H676
			C676.2,167.3,676.5,167.5,676.7,167.8z"/>
		<path class="st3" d="M530.6,187.7c-0.3-3.9-1.4-7.5-3.2-10.5c-3.2-5.5-8-9-14.5-10.7c-2.5-0.7-5.1-1-7.8-1H504
			c-2.7,0-5.3,0.3-7.8,1c-6.5,1.8-11.3,5.3-14.5,10.7c-1.8,3-2.9,6.5-3.2,10.5c-0.1,0.8-0.1,1.6-0.1,2.3c0,0.8,0,1.5,0.1,2.3
			c0.3,3.9,1.4,7.5,3.2,10.5c3.2,5.5,8,9,14.5,10.7c2.5,0.7,5.1,1,7.8,1h1.1c2.7,0,5.3-0.3,7.8-1c6.5-1.8,11.3-5.3,14.5-10.7
			c1.8-3,2.9-6.5,3.2-10.5c0.1-0.8,0.1-1.6,0.1-2.3C530.7,189.3,530.6,188.5,530.6,187.7L530.6,187.7z M518.6,192.8L518.6,192.8
			c-0.8,5.5-3.1,9.4-7,11.8c-2.1,1.3-4.4,1.9-7,2c-2.7-0.1-5-0.7-7.1-2c-3.9-2.4-6.2-6.2-7-11.8c-0.1-0.9-0.2-1.8-0.2-2.8
			c0-1,0.1-1.9,0.2-2.8c0.8-5.5,3.1-9.4,7-11.8c2.1-1.3,4.4-1.9,7-2c2.7,0.1,4.9,0.7,7.1,2c3.9,2.4,6.2,6.2,7,11.8
			c0.1,0.9,0.2,1.8,0.2,2.8C518.8,191,518.7,191.9,518.6,192.8z"/>
		<path class="st3" d="M751.7,187.7c-0.3-3.9-1.4-7.5-3.2-10.5c-3.3-5.5-8-9-14.5-10.7c-2.5-0.7-5.1-1-7.8-1h-1.1
			c-2.7,0-5.3,0.3-7.8,1c-6.5,1.8-11.3,5.3-14.5,10.7c-1.8,3-2.9,6.5-3.2,10.5c-0.1,0.8-0.1,1.6-0.1,2.3c0,0.8,0,1.5,0.1,2.3
			c0.3,3.9,1.4,7.5,3.2,10.5c3.2,5.5,8,9,14.5,10.7c2.5,0.7,5.1,1,7.8,1h1.1c2.7,0,5.3-0.3,7.8-1c6.5-1.8,11.3-5.3,14.5-10.7
			c1.8-3,2.9-6.5,3.2-10.5c0.1-0.8,0.1-1.6,0.1-2.3C751.8,189.3,751.7,188.5,751.7,187.7L751.7,187.7z M739.7,192.8L739.7,192.8
			c-0.8,5.5-3.1,9.4-7,11.8c-2.1,1.3-4.4,1.9-7,2c-2.7-0.1-5-0.7-7.1-2c-3.9-2.4-6.2-6.2-7-11.8c-0.1-0.9-0.2-1.8-0.2-2.8
			c0-1,0.1-1.9,0.2-2.8c0.8-5.5,3.1-9.4,7-11.8c2.1-1.3,4.4-1.9,7-2c2.7,0.1,4.9,0.7,7.1,2c3.9,2.4,6.2,6.2,7,11.8
			c0.1,0.9,0.2,1.8,0.2,2.8C739.9,191,739.8,191.9,739.7,192.8z"/>
		<path class="st3" d="M793.8,167.2v27.6L771,167.2h-14.9c0.3,0.3,0.6,0.5,0.9,0.9c2.1,2.4,2.4,5.4,2.4,7.8c0,8.1,0,31.2,0,37.1
			h12.9V184l22.7,28.9h10.2v-45.7H793.8z"/>
		<path class="st3" d="M610,167.4c0,5.1,0,22.6,0,28.3c0,6.5-3.9,10.7-10.1,11c-0.3,0-0.6,0-0.8,0c-5,0-10.4-3.1-10.4-8.2v-31.2
			h-16.1c1.2,1.1,2.4,2.8,2.9,5.4c0.2,1,0.3,2.1,0.3,3.2c0,0.4,0,1.8,0,3.7c0,5.6,0,16.1,0.2,18.6c0.6,6.9,4.5,11.7,11.5,14.3
			c3.6,1.3,7.5,2,11.4,2c3.2,0,6.5-0.4,9.9-1.3c5-1.3,8.6-3.9,11-7.8c1.8-3,2.6-6.4,2.6-10.9c0-5.7,0-22.3,0-27.2H610z"/>
		<path class="st3" d="M550.8,174.7v-7.6l-15.9,0c0.3,0.2,0.5,0.5,0.7,0.7c2.1,2.4,2.4,5.5,2.4,7.9c0,8.1,0,31.2,0,37.3h12.8v0h22.3
			v-7h-22.3V174.7z"/>
		<path class="st3" d="M629.1,174v3.2c1.1-1.2,2.8-2.4,5.4-2.9c1-0.2,2-0.3,3-0.3h6v39h12.7v-39h6c1,0,2.1,0.1,3,0.3
			c2.7,0.5,4.4,1.6,5.4,2.9V174v-7h-41.7V174z"/>
	</g>
</g>
</svg>
